# Blender v2.83.5 OBJ File: 'room.blend'
# www.blender.org
mtllib room_sample.mtl
o Cube
v 9.818851 1.000000 -10.200000
v 9.818851 -1.000000 -10.200000
v 9.818851 1.000000 10.200000
v 9.818851 -1.000000 10.200000
v -9.818851 1.000000 -10.200000
v -9.818851 -1.000000 -10.200000
v -9.818851 1.000000 10.200000
v -9.818851 -1.000000 10.200000
v 9.818851 8.000000 10.200000
v -9.818851 8.000000 10.200000
v 9.818851 8.000000 -10.200000
v -9.818851 8.000000 -10.200000
vt 0.625000 0.500000
vt 0.625000 0.250000
vt 0.625000 0.250000
vt 0.625000 0.500000
vt 0.375000 0.750000
vt 0.625000 0.750000
vt 0.625000 1.000000
vt 0.375000 1.000000
vt 0.375000 0.000000
vt 0.625000 0.000000
vt 0.375000 0.250000
vt 0.125000 0.500000
vt 0.375000 0.500000
vt 0.125000 0.750000
vt 0.875000 0.500000
vt 0.875000 0.750000
vt 0.625000 0.750000
vt 0.625000 1.000000
vt 0.625000 0.000000
vn 0.0000 0.0000 -1.0000
vn 0.0000 0.0000 1.0000
vn -1.0000 0.0000 0.0000
vn 0.0000 -1.0000 0.0000
vn 1.0000 0.0000 0.0000
vn 0.0000 1.0000 0.0000
usemtl Material
s off
f 1/1/1 5/2/1 12/3/1 11/4/1
f 4/5/2 3/6/2 7/7/2 8/8/2
f 8/9/3 7/10/3 5/2/3 6/11/3
f 6/12/4 2/13/4 4/5/4 8/14/4
f 2/13/5 1/1/5 3/6/5 4/5/5
f 6/11/1 5/2/1 1/1/1 2/13/1
f 11/4/6 12/15/6 10/16/6 9/17/6
f 7/7/2 3/6/2 9/17/2 10/18/2
f 5/2/3 7/10/3 10/19/3 12/3/3
f 3/6/5 1/1/5 11/4/5 9/17/5
