# Blender v2.83.5 OBJ File: 'room.blend'
# www.blender.org
mtllib Floor2.mtl
o 0.Floor_Cube.001
v -12.842316 -4.500000 -10.200000
v -12.842316 -4.500000 10.200000
v 12.842316 -4.500000 -10.200000
v 12.842316 -4.500000 10.200000
v -12.842316 -4.500000 0.000000
v 12.842316 -4.500000 0.000000
v 0.000000 -4.500000 10.200000
v 0.000000 -4.500000 -10.200000
v 0.000000 -4.500000 0.000000
vt 0.500000 0.500000
vt 0.000000 0.500000
vt 0.000000 0.000000
vt 0.500000 0.000000
vt 1.000000 0.500000
vt 1.000000 0.000000
vt 1.000000 1.000000
vt 0.500000 1.000000
vt 0.000000 1.000000
vn 0.0000 1.0000 0.0000
usemtl Material
s off
f 9/1/1 7/2/1 4/3/1 6/4/1
f 8/5/1 9/1/1 6/4/1 3/6/1
f 1/7/1 5/8/1 9/1/1 8/5/1
f 5/8/1 2/9/1 7/2/1 9/1/1
