# Blender v2.83.5 OBJ File: 'room.blend'
# www.blender.org
mtllib SampleRoom.mtl
o 0.Room_Cube
v -12.842316 -4.500000 -10.200000
v -12.842316 -4.500000 10.200000
v -12.842316 6.060606 10.200000
v -12.842316 6.060606 -10.200000
v 12.842316 -4.500000 -10.200000
v 12.842316 -4.500000 10.200000
v 12.842316 6.060606 -10.200000
v 12.842316 6.060606 10.200000
v 7.697400 0.944658 10.200000
v 7.697400 4.825890 10.200000
v -0.312217 4.825890 10.200000
v -0.312217 0.944658 10.200000
vt 0.409639 0.500000
vt 0.819277 0.500000
vt 0.819277 0.000000
vt 0.409639 0.000000
vt 0.000000 0.500000
vt 0.409639 0.500000
vt 0.409638 0.000000
vt 0.000000 0.000000
vt 0.180723 0.500000
vt 0.000000 0.500000
vt 0.000000 1.000000
vt 0.180723 1.000000
vt 1.000000 0.500000
vt 0.912451 0.256078
vt 0.912451 0.100156
vt 0.978870 0.100156
vt 1.000000 0.000000
vt 0.361446 0.897125
vt 0.361446 0.500000
vt 0.180723 0.500000
vt 0.180723 0.897125
vt 0.542169 0.897125
vt 0.542169 0.500000
vt 0.361446 0.500000
vt 0.361446 0.897125
vt 0.978870 0.256078
vn 0.0000 1.0000 0.0000
vn 0.0000 -1.0000 0.0000
vn 0.0000 0.0000 1.0000
vn -0.0000 0.0000 -1.0000
vn 1.0000 0.0000 0.0000
vn -1.0000 0.0000 0.0000
usemtl Material
s off
f 1/1/1 2/2/1 6/3/1 5/4/1
usemtl Material.001
f 3/5/2 4/6/2 7/7/2 8/8/2
usemtl Material.002
f 5/9/3 7/10/3 4/11/3 1/12/3
f 2/2/4 3/13/4 12/14/4 9/15/4 10/16/4 8/17/4 6/3/4
f 2/18/5 1/19/5 4/20/5 3/21/5
f 5/22/6 6/23/6 8/24/6 7/25/6
f 3/13/4 8/17/4 10/16/4 11/26/4 12/14/4
