# Blender v2.83.5 OBJ File: 'room.blend'
# www.blender.org
mtllib Shelves.mtl
o 19._ShelvesAndTable_Cube.005
v 10.353971 -0.323926 8.602802
v 10.353971 0.002214 8.602802
v 10.353971 -0.323926 0.901703
v 10.353971 0.002214 0.901703
v 12.982826 -0.323926 8.602802
v 12.982826 0.002214 8.602802
v 12.982826 -0.323926 0.901703
v 12.982826 0.002214 0.901703
v 10.462115 2.624472 10.539053
v 10.462115 2.950612 10.539053
v 10.462115 2.624472 8.840092
v 10.462115 2.950612 8.840092
v 13.090970 2.624472 10.539053
v 13.090970 2.950612 10.539053
v 13.090970 2.624472 8.840092
v 13.090970 2.950612 8.840092
v 10.625686 2.118358 0.358070
v 10.625686 2.444498 0.358070
v 10.625686 2.118358 -2.874306
v 10.625686 2.444498 -2.874306
v 13.254540 2.118358 0.358070
v 13.254540 2.444498 0.358070
v 13.254540 2.118358 -2.874306
v 13.254540 2.444498 -2.874306
v 10.625686 4.057889 -2.021112
v 10.625686 4.384028 -2.021112
v 10.625686 4.057889 -5.253488
v 10.625686 4.384028 -5.253488
v 13.254540 4.057889 -2.021112
v 13.254540 4.384028 -2.021112
v 13.254540 4.057889 -5.253488
v 13.254540 4.384028 -5.253488
v -4.115024 -0.323926 -2.072291
v -4.115024 0.002214 -2.072291
v -4.115024 -0.323926 -10.028846
v -4.115024 0.002214 -10.028846
v -1.877296 -0.323926 -2.072291
v -1.877296 0.002214 -2.072291
v -1.877296 -0.323926 -10.028846
v -1.877296 0.002214 -10.028846
v -4.317347 2.083648 -3.032739
v -4.317347 2.409788 -3.032739
v -4.317347 2.083648 -6.265114
v -4.317347 2.409788 -6.265114
v -1.688492 2.083648 -3.032739
v -1.688492 2.409788 -3.032739
v -1.688492 2.083648 -6.265114
v -1.688492 2.409788 -6.265114
v -4.317347 4.023179 -5.411922
v -4.317347 4.349319 -5.411922
v -4.317347 4.023179 -8.644297
v -4.317347 4.349319 -8.644297
v -1.688492 4.023179 -5.411922
v -1.688492 4.349319 -5.411922
v -1.688492 4.023179 -8.644297
v -1.688492 4.349319 -8.644297
vt 0.921517 0.483947
vt 0.898423 0.483947
vt 0.898423 0.000000
vt 0.921517 0.000000
vt 0.561868 0.868327
vt 0.538775 0.868327
vt 0.538775 0.703127
vt 0.561868 0.703127
vt 0.898423 0.483947
vt 0.875330 0.483947
vt 0.875330 0.000000
vt 0.898423 0.000000
vt 0.561868 0.703127
vt 0.584961 0.703127
vt 0.584961 0.868327
vt 0.561868 0.868327
vt 0.372288 0.483947
vt 0.186144 0.483947
vt 0.186144 0.000000
vt 0.372288 0.000000
vt 0.000000 0.000000
vt 0.186144 0.000000
vt 0.186144 0.483947
vt 0.000000 0.483947
vt 0.838988 0.809891
vt 0.815895 0.809891
vt 0.815895 0.703127
vt 0.838988 0.703127
vt 0.515681 0.703127
vt 0.538775 0.703127
vt 0.538775 0.868327
vt 0.515681 0.868327
vt 0.815895 0.809891
vt 0.792801 0.809891
vt 0.792801 0.703127
vt 0.815895 0.703127
vt 0.654241 0.703127
vt 0.677335 0.703127
vt 0.677335 0.868327
vt 0.654241 0.868327
vt 0.251988 0.852274
vt 0.251988 0.687073
vt 0.372288 0.687074
vt 0.372288 0.852274
vt 0.492588 0.703127
vt 0.492588 0.868327
vt 0.372288 0.868327
vt 0.372288 0.703127
vt 0.251988 0.890200
vt 0.228895 0.890200
vt 0.228895 0.687073
vt 0.251988 0.687073
vt 0.608055 0.703127
vt 0.631148 0.703127
vt 0.631148 0.868327
vt 0.608055 0.868327
vt 1.000000 0.500000
vt 0.976907 0.500000
vt 0.976907 0.296873
vt 1.000000 0.296873
vt 0.631148 0.703127
vt 0.654241 0.703127
vt 0.654241 0.868327
vt 0.631148 0.868327
vt 0.930720 0.703127
vt 0.744576 0.703127
vt 0.744576 0.500000
vt 0.930720 0.500000
vt 0.186144 0.890200
vt 0.000000 0.890200
vt 0.000000 0.687073
vt 0.186144 0.687073
vt 1.000000 0.703127
vt 0.976907 0.703127
vt 0.976907 0.500000
vt 1.000000 0.500000
vt 0.723521 0.868327
vt 0.700428 0.868327
vt 0.700428 0.703127
vt 0.723521 0.703127
vt 0.953813 0.296873
vt 0.976907 0.296873
vt 0.976907 0.500000
vt 0.953813 0.500000
vt 0.723521 0.703127
vt 0.746615 0.703127
vt 0.746615 0.868327
vt 0.723521 0.868327
vt 0.689186 0.203127
vt 0.875330 0.203127
vt 0.875330 0.406253
vt 0.689186 0.406253
vt 0.186144 0.687073
vt 0.000000 0.687073
vt 0.000000 0.483947
vt 0.186144 0.483947
vt 0.976907 1.000000
vt 0.953813 1.000000
vt 0.953813 0.500000
vt 0.976907 0.500000
vt 0.769708 0.703127
vt 0.792801 0.703127
vt 0.792801 0.843748
vt 0.769708 0.843748
vt 0.953813 1.000000
vt 0.930720 1.000000
vt 0.930720 0.500000
vt 0.953813 0.500000
vt 0.746615 0.703127
vt 0.769708 0.703127
vt 0.769708 0.843748
vt 0.746615 0.843748
vt 0.530737 0.500000
vt 0.372288 0.500000
vt 0.372288 0.000000
vt 0.530737 0.000000
vt 0.689186 0.500000
vt 0.530737 0.500000
vt 0.530737 0.000000
vt 0.689186 0.000000
vt 0.990797 0.203127
vt 0.967704 0.203127
vt 0.967704 0.000000
vt 0.990797 0.000000
vt 0.608055 0.868327
vt 0.584961 0.868327
vt 0.584961 0.703127
vt 0.608055 0.703127
vt 0.967704 0.203127
vt 0.944610 0.203127
vt 0.944610 0.000000
vt 0.967703 0.000000
vt 0.677335 0.703127
vt 0.700428 0.703127
vt 0.700428 0.868327
vt 0.677335 0.868327
vt 0.372288 0.687073
vt 0.186144 0.687073
vt 0.186144 0.483947
vt 0.372288 0.483947
vt 0.689186 0.000000
vt 0.875330 0.000000
vt 0.875330 0.203127
vt 0.689186 0.203127
vt 0.944610 0.203127
vt 0.921517 0.203127
vt 0.921517 0.000000
vt 0.944610 0.000000
vt 0.205801 0.687073
vt 0.228894 0.687073
vt 0.228895 0.852274
vt 0.205801 0.852274
vt 0.944610 0.406253
vt 0.921517 0.406253
vt 0.921517 0.203127
vt 0.944610 0.203127
vt 0.492588 0.703127
vt 0.515681 0.703127
vt 0.515681 0.868327
vt 0.492588 0.868327
vt 0.372288 0.500000
vt 0.558432 0.500000
vt 0.558432 0.703126
vt 0.372288 0.703127
vt 0.744576 0.703126
vt 0.558432 0.703126
vt 0.558432 0.500000
vt 0.744576 0.500000
vn -1.0000 0.0000 0.0000
vn 0.0000 0.0000 -1.0000
vn 1.0000 0.0000 0.0000
vn 0.0000 0.0000 1.0000
vn 0.0000 -1.0000 0.0000
vn 0.0000 1.0000 0.0000
usemtl None
s off
f 1/1/1 2/2/1 4/3/1 3/4/1
f 3/5/2 4/6/2 8/7/2 7/8/2
f 7/9/3 8/10/3 6/11/3 5/12/3
f 5/13/4 6/14/4 2/15/4 1/16/4
f 3/17/5 7/18/5 5/19/5 1/20/5
f 8/21/6 4/22/6 2/23/6 6/24/6
f 9/25/1 10/26/1 12/27/1 11/28/1
f 11/29/2 12/30/2 16/31/2 15/32/2
f 15/33/3 16/34/3 14/35/3 13/36/3
f 13/37/4 14/38/4 10/39/4 9/40/4
f 11/41/5 15/42/5 13/43/5 9/44/5
f 16/45/6 12/46/6 10/47/6 14/48/6
f 17/49/1 18/50/1 20/51/1 19/52/1
f 19/53/2 20/54/2 24/55/2 23/56/2
f 23/57/3 24/58/3 22/59/3 21/60/3
f 21/61/4 22/62/4 18/63/4 17/64/4
f 19/65/5 23/66/5 21/67/5 17/68/5
f 24/69/6 20/70/6 18/71/6 22/72/6
f 25/73/1 26/74/1 28/75/1 27/76/1
f 27/77/2 28/78/2 32/79/2 31/80/2
f 31/81/3 32/82/3 30/83/3 29/84/3
f 29/85/4 30/86/4 26/87/4 25/88/4
f 27/89/5 31/90/5 29/91/5 25/92/5
f 32/93/6 28/94/6 26/95/6 30/96/6
f 33/97/1 34/98/1 36/99/1 35/100/1
f 35/101/2 36/102/2 40/103/2 39/104/2
f 39/105/3 40/106/3 38/107/3 37/108/3
f 37/109/4 38/110/4 34/111/4 33/112/4
f 35/113/5 39/114/5 37/115/5 33/116/5
f 40/117/6 36/118/6 34/119/6 38/120/6
f 41/121/1 42/122/1 44/123/1 43/124/1
f 43/125/2 44/126/2 48/127/2 47/128/2
f 47/129/3 48/130/3 46/131/3 45/132/3
f 45/133/4 46/134/4 42/135/4 41/136/4
f 43/137/5 47/138/5 45/139/5 41/140/5
f 48/141/6 44/142/6 42/143/6 46/144/6
f 49/145/1 50/146/1 52/147/1 51/148/1
f 51/149/2 52/150/2 56/151/2 55/152/2
f 55/153/3 56/154/3 54/155/3 53/156/3
f 53/157/4 54/158/4 50/159/4 49/160/4
f 51/161/5 55/162/5 53/163/5 49/164/5
f 56/165/6 52/166/6 50/167/6 54/168/6
