# Blender v2.83.5 OBJ File: 'room.blend'
# www.blender.org
mtllib Walls.mtl
o 0.Walls_Cube.004
v -12.842316 -4.500000 -10.200000
v -12.842316 -4.500000 10.200000
v -12.842316 6.060606 10.200000
v -12.842316 6.060606 -10.200000
v 12.842316 -4.500000 -10.200000
v 12.842316 -4.500000 10.200000
v 12.842316 6.060606 -10.200000
v 12.842316 6.060606 10.200000
v -0.505893 -4.500000 10.200000
v -0.505893 6.060606 10.200000
v 8.539148 -4.500000 10.200000
v 8.539148 6.060606 10.200000
v -0.505893 0.572813 10.200000
v 8.539148 0.572813 10.200000
v -0.505893 4.891310 10.200000
v 8.539148 4.891310 10.200000
vt 0.506549 0.105470
vt 0.666667 0.105470
vt 0.666667 0.327162
vt 0.506549 0.327162
vt 0.333333 0.000000
vt 0.666667 0.000000
vt 0.370241 0.105470
vt 0.333333 0.105470
vt 1.000000 0.500000
vt 0.666667 0.500000
vt 0.666667 0.000000
vt 1.000000 0.000000
vt 1.000000 1.000000
vt 0.666667 1.000000
vt 0.666667 0.500000
vt 1.000000 0.500000
vt 0.000000 0.000000
vt 0.333333 0.000000
vt 0.333333 0.629525
vt 0.000000 0.629525
vt 0.370241 0.327162
vt 0.333333 0.327162
vt 0.666667 0.629525
vt 0.333333 0.629525
vn 0.0000 0.0000 -1.0000
vn -1.0000 0.0000 0.0000
vn 1.0000 0.0000 0.0000
vn 0.0000 0.0000 1.0000
usemtl Material.002
s off
f 14/1/1 11/2/1 9/3/1 13/4/1
f 8/5/1 6/6/1 11/2/1 14/1/1 16/7/1 12/8/1
f 6/9/2 8/10/2 7/11/2 5/12/2
f 1/13/3 4/14/3 3/15/3 2/16/3
f 5/17/4 7/18/4 4/19/4 1/20/4
f 12/8/1 16/7/1 15/21/1 10/22/1
f 15/21/1 13/4/1 9/3/1 2/23/1 3/24/1 10/22/1
